<svg width="128" height="32" viewBox="0 0 128 32" fill="none" xmlns="http://www.w3.org/2000/svg">
<rect width="64.4961" height="32" fill="#251B37"/>
<path d="M9.6165 6.336C10.7205 6.336 11.7045 6.48 12.5685 6.768C13.4325 7.04 14.1525 7.44 14.7285 7.968C15.3205 8.48 15.7685 9.104 16.0725 9.84C16.3765 10.56 16.5285 11.376 16.5285 12.288C16.5285 13.008 16.4165 13.728 16.1925 14.448C15.9845 15.168 15.6325 15.824 15.1365 16.416C14.6565 17.008 14.0165 17.488 13.2165 17.856C12.4165 18.208 11.4245 18.384 10.2405 18.384H7.7445V24H4.2645V6.336H9.6165ZM10.2165 15.024C10.7445 15.024 11.1845 14.936 11.5365 14.76C11.8885 14.584 12.1605 14.36 12.3525 14.088C12.5605 13.816 12.7045 13.536 12.7845 13.248C12.8805 12.944 12.9285 12.664 12.9285 12.408C12.9285 12.216 12.8965 11.976 12.8325 11.688C12.7845 11.384 12.6725 11.08 12.4965 10.776C12.3205 10.472 12.0485 10.216 11.6805 10.008C11.3285 9.8 10.8485 9.696 10.2405 9.696H7.7445V15.024H10.2165ZM13.4805 17.184L17.8485 24H13.7925L9.3285 17.28L13.4805 17.184ZM26.0569 24.288C24.7769 24.288 23.6889 24.048 22.7929 23.568C21.9129 23.088 21.2409 22.424 20.7769 21.576C20.3129 20.728 20.0809 19.752 20.0809 18.648C20.0809 17.592 20.3529 16.64 20.8969 15.792C21.4409 14.944 22.1689 14.272 23.0809 13.776C23.9929 13.264 25.0089 13.008 26.1289 13.008C27.6329 13.008 28.8649 13.448 29.8249 14.328C30.8009 15.192 31.4329 16.448 31.7209 18.096L23.5609 20.688L22.8169 18.864L28.7209 16.872L28.0249 17.184C27.8969 16.768 27.6649 16.408 27.3289 16.104C27.0089 15.784 26.5209 15.624 25.8649 15.624C25.3689 15.624 24.9289 15.744 24.5449 15.984C24.1769 16.208 23.8889 16.536 23.6809 16.968C23.4889 17.384 23.3929 17.88 23.3929 18.456C23.3929 19.112 23.5129 19.664 23.7529 20.112C23.9929 20.544 24.3209 20.872 24.7369 21.096C25.1529 21.32 25.6169 21.432 26.1289 21.432C26.4969 21.432 26.8489 21.368 27.1849 21.24C27.5369 21.112 27.8809 20.944 28.2169 20.736L29.7049 23.232C29.1449 23.552 28.5369 23.808 27.8809 24C27.2409 24.192 26.6329 24.288 26.0569 24.288ZM38.4105 13.512L38.6745 15.36L38.6265 15.216C39.0425 14.512 39.5625 13.968 40.1865 13.584C40.8105 13.184 41.5625 12.984 42.4425 12.984C43.0185 12.984 43.5225 13.064 43.9545 13.224C44.4025 13.384 44.7785 13.624 45.0825 13.944C45.3865 14.248 45.5945 14.648 45.7065 15.144L45.5865 15.168C46.0345 14.512 46.5705 13.984 47.1945 13.584C47.8345 13.184 48.4985 12.984 49.1865 12.984C50.2265 12.984 51.0505 13.28 51.6585 13.872C52.2825 14.448 52.6025 15.2 52.6185 16.128V24H49.2825V17.52C49.2665 17.056 49.1945 16.68 49.0665 16.392C48.9385 16.088 48.6425 15.92 48.1785 15.888C47.6345 15.888 47.1705 16.08 46.7865 16.464C46.4185 16.832 46.1385 17.312 45.9465 17.904C45.7705 18.48 45.6825 19.08 45.6825 19.704V24H42.3225V17.52C42.3065 17.056 42.2185 16.68 42.0585 16.392C41.9145 16.088 41.6105 15.92 41.1465 15.888C40.6185 15.888 40.1705 16.08 39.8025 16.464C39.4505 16.832 39.1785 17.304 38.9865 17.88C38.8105 18.456 38.7225 19.048 38.7225 19.656V24H35.3625V13.512H38.4105ZM57.2812 13.512H60.6412V24H57.2812V13.512ZM57.2092 9.792C57.2092 9.296 57.4012 8.888 57.7852 8.568C58.1852 8.248 58.6092 8.088 59.0572 8.088C59.5052 8.088 59.9132 8.248 60.2812 8.568C60.6652 8.888 60.8572 9.296 60.8572 9.792C60.8572 10.288 60.6652 10.696 60.2812 11.016C59.9132 11.32 59.5052 11.472 59.0572 11.472C58.6092 11.472 58.1852 11.32 57.7852 11.016C57.4012 10.696 57.2092 10.288 57.2092 9.792Z" fill="white"/>
<rect x="64" width="64" height="32" fill="white"/>
<path d="M69.776 13.512L70.04 15.384L69.992 15.216C70.36 14.56 70.88 14.032 71.552 13.632C72.224 13.216 73.048 13.008 74.024 13.008C75.016 13.008 75.84 13.304 76.496 13.896C77.168 14.472 77.512 15.224 77.528 16.152V24H74.168V17.4C74.152 16.936 74.024 16.568 73.784 16.296C73.56 16.008 73.176 15.864 72.632 15.864C72.12 15.864 71.672 16.032 71.288 16.368C70.904 16.704 70.608 17.16 70.4 17.736C70.192 18.312 70.088 18.976 70.088 19.728V24H66.728V13.512H69.776ZM86.45 24.288C85.474 24.288 84.602 24.064 83.834 23.616C83.066 23.152 82.458 22.488 82.01 21.624C81.578 20.76 81.362 19.736 81.362 18.552C81.362 17.368 81.602 16.36 82.082 15.528C82.562 14.696 83.218 14.064 84.05 13.632C84.882 13.2 85.826 12.984 86.882 12.984C87.554 12.984 88.194 13.088 88.802 13.296C89.426 13.504 89.946 13.824 90.362 14.256V15.312V5.064H93.698V24H90.338V21.96L90.602 22.68C90.058 23.128 89.45 23.512 88.778 23.832C88.106 24.136 87.33 24.288 86.45 24.288ZM87.554 21.456C88.002 21.456 88.394 21.4 88.73 21.288C89.082 21.16 89.386 20.984 89.642 20.76C89.914 20.52 90.146 20.224 90.338 19.872V17.304C90.21 16.952 90.01 16.656 89.738 16.416C89.482 16.16 89.162 15.968 88.778 15.84C88.41 15.696 88.002 15.624 87.554 15.624C87.058 15.624 86.594 15.752 86.162 16.008C85.746 16.248 85.41 16.584 85.154 17.016C84.898 17.448 84.77 17.944 84.77 18.504C84.77 19.064 84.898 19.568 85.154 20.016C85.41 20.464 85.746 20.816 86.162 21.072C86.594 21.328 87.058 21.456 87.554 21.456ZM103.515 24.288C102.235 24.288 101.147 24.048 100.251 23.568C99.3706 23.088 98.6986 22.424 98.2346 21.576C97.7706 20.728 97.5386 19.752 97.5386 18.648C97.5386 17.592 97.8106 16.64 98.3546 15.792C98.8986 14.944 99.6266 14.272 100.539 13.776C101.451 13.264 102.467 13.008 103.587 13.008C105.091 13.008 106.323 13.448 107.283 14.328C108.259 15.192 108.891 16.448 109.179 18.096L101.019 20.688L100.275 18.864L106.179 16.872L105.483 17.184C105.355 16.768 105.123 16.408 104.787 16.104C104.467 15.784 103.979 15.624 103.323 15.624C102.827 15.624 102.387 15.744 102.003 15.984C101.635 16.208 101.347 16.536 101.139 16.968C100.947 17.384 100.851 17.88 100.851 18.456C100.851 19.112 100.971 19.664 101.211 20.112C101.451 20.544 101.779 20.872 102.195 21.096C102.611 21.32 103.075 21.432 103.587 21.432C103.955 21.432 104.307 21.368 104.643 21.24C104.995 21.112 105.339 20.944 105.675 20.736L107.163 23.232C106.603 23.552 105.995 23.808 105.339 24C104.699 24.192 104.091 24.288 103.515 24.288ZM118.724 6.336C119.828 6.336 120.812 6.48 121.676 6.768C122.54 7.04 123.26 7.44 123.836 7.968C124.428 8.48 124.876 9.104 125.18 9.84C125.484 10.56 125.636 11.376 125.636 12.288C125.636 13.008 125.524 13.728 125.3 14.448C125.092 15.168 124.74 15.824 124.244 16.416C123.764 17.008 123.124 17.488 122.324 17.856C121.524 18.208 120.532 18.384 119.348 18.384H116.852V24H113.372V6.336H118.724ZM119.324 15.024C119.852 15.024 120.292 14.936 120.644 14.76C120.996 14.584 121.268 14.36 121.46 14.088C121.668 13.816 121.812 13.536 121.892 13.248C121.988 12.944 122.036 12.664 122.036 12.408C122.036 12.216 122.004 11.976 121.94 11.688C121.892 11.384 121.78 11.08 121.604 10.776C121.428 10.472 121.156 10.216 120.788 10.008C120.436 9.8 119.956 9.696 119.348 9.696H116.852V15.024H119.324ZM122.588 17.184L126.956 24H122.9L118.436 17.28L122.588 17.184Z" fill="#251B37"/>
</svg>
